<svg width="12" height="18" viewBox="0 0 12 18" fill="none" xmlns="http://www.w3.org/2000/svg">
<path d="M11 5.66675C11 2.90841 8.75829 0.666748 5.99996 0.666748C3.24163 0.666748 0.999959 2.90841 0.999959 5.66675C0.999959 9.41675 5.99996 14.8334 5.99996 14.8334C5.99996 14.8334 11 9.41675 11 5.66675ZM4.33329 5.66675C4.33329 4.75008 5.08329 4.00008 5.99996 4.00008C6.91663 4.00008 7.66663 4.75008 7.66663 5.66675C7.66663 6.58342 6.92496 7.33342 5.99996 7.33342C5.08329 7.33342 4.33329 6.58342 4.33329 5.66675ZM0.166626 15.6667V17.3334H11.8333V15.6667H0.166626Z" fill="#C6BE68"/>
</svg>
