<svg width="34" height="15" viewBox="0 0 34 15" fill="none" xmlns="http://www.w3.org/2000/svg">
<path d="M26.35 0C24.31 0 22.3833 0.780669 21.0092 2.1329L17 5.63197L14.8467 7.5H14.8608L11.05 10.8318C10.1433 11.724 8.93917 12.2119 7.65 12.2119C5.00083 12.2119 2.8475 10.1069 2.8475 7.5C2.8475 4.89312 5.00083 2.7881 7.65 2.7881C8.93917 2.7881 10.1433 3.27602 11.1067 4.22398L12.7075 5.61803L14.8467 3.75L13.0617 2.2026C11.6167 0.780669 9.69 0 7.65 0C3.42833 0 0 3.37361 0 7.5C0 11.6264 3.42833 15 7.65 15C9.69 15 11.6167 14.2193 12.9908 12.8671L17 9.38197L17.0142 9.39591L19.1533 7.5H19.1392L22.95 4.16822C23.8567 3.27602 25.0608 2.7881 26.35 2.7881C28.9992 2.7881 31.1525 4.89312 31.1525 7.5C31.1525 10.1069 28.9992 12.2119 26.35 12.2119C25.075 12.2119 23.8567 11.724 22.8933 10.776L21.2783 9.36803L19.1392 11.2361L20.9383 12.7974C22.3833 14.2054 24.2958 14.9861 26.35 14.9861C30.5717 14.9861 34 11.6264 34 7.48606C34 3.34573 30.5717 0 26.35 0Z" fill="#171753"/>
</svg>
